<?xml version="1.0" encoding="UTF-8" standalone="no"?>
<!-- Created with Inkscape (http://www.inkscape.org/) -->

<svg
   version="1.1"
   id="svg2"
   width="1152"
   height="528"
   viewBox="0 0 1152 528"
   sodipodi:docname="Logo-horizontal.svg"
   inkscape:version="1.2.2 (732a01da63, 2022-12-09)"
   xmlns:inkscape="http://www.inkscape.org/namespaces/inkscape"
   xmlns:sodipodi="http://sodipodi.sourceforge.net/DTD/sodipodi-0.dtd"
   xmlns="http://www.w3.org/2000/svg"
   xmlns:svg="http://www.w3.org/2000/svg">
  <defs
     id="defs6">
    <clipPath
       clipPathUnits="userSpaceOnUse"
       id="clipPath18">
      <path
         d="m 474.71,216.836 c -25.432,-33.017 -42.254,-41.431 -42.254,-41.431 v 0 l 62.98,-55.748 c 0,0 17.833,26.247 26.966,43.076 v 0 c 7.127,13.132 12.075,59.94 10.141,90.452 v 0 c -3.497,55.24 -32.469,117.77 -32.469,117.77 v 0 c 0,0 9.391,-109 -25.364,-154.119"
         id="path16" />
    </clipPath>
    <linearGradient
       x1="0"
       y1="0"
       x2="1"
       y2="0"
       gradientUnits="userSpaceOnUse"
       gradientTransform="matrix(41.56366,-217.67126,-217.67126,-41.563644,460.55957,333.67334)"
       spreadMethod="pad"
       id="linearGradient28">
      <stop
         style="stop-opacity:1;stop-color:#0071bb"
         offset="0"
         id="stop24" />
      <stop
         style="stop-opacity:1;stop-color:#00295b"
         offset="1"
         id="stop26" />
    </linearGradient>
    <clipPath
       clipPathUnits="userSpaceOnUse"
       id="clipPath38">
      <path
         d="M 0,396 H 864 V 0 H 0 Z"
         id="path36" />
    </clipPath>
    <clipPath
       clipPathUnits="userSpaceOnUse"
       id="clipPath50">
      <path
         d="m 336.918,249.394 -94.724,28.956 c 0,0 75.806,-38.282 92.323,-51.344 v 0 c 15.761,-12.46 25.602,-22.135 33.501,-31.919 v 0 c 13.762,-17.049 21.807,-39.724 31.744,-51.51 v 0 c 0,0 -7.979,-13.697 -16.146,-26.622 v 0 C 356.566,74.146 189.556,28.008 189.556,28.008 v 0 c 0,0 129.331,-5.108 192.672,4.433 v 0 c 31.036,4.676 60.739,30.323 64.397,35.226 v 0 c 11.132,14.895 21.789,14.852 21.789,14.852 v 0 c 5.834,-0.955 5.973,-0.366 12.514,-3.503 v 0 c 6.526,-3.115 10.814,-7.643 19.094,-12.954 v 0 c 8.281,-5.317 23.121,-6.559 30.39,-5.502 v 0 c 7.27,1.049 20.113,-13.984 20.113,-13.984 v 0 l -3.737,22.731 c 0,0 6.076,14.435 3.085,21.596 v 0 c -2.993,7.164 -9.56,19.208 -15.93,26.261 v 0 c -7.509,8.308 -13.379,11.171 -19.588,19.542 v 0 c -6.202,8.375 -47.861,55.123 -68.383,67.339 v 0 c -20.52,12.222 -65.929,36.629 -89.594,51.114 v 0 c -23.664,14.484 -85.405,57.137 -85.405,57.137 v 0 z"
         id="path48" />
    </clipPath>
    <linearGradient
       x1="0"
       y1="0"
       x2="1"
       y2="0"
       gradientUnits="userSpaceOnUse"
       gradientTransform="matrix(246.92998,-108.97226,-108.97226,-246.92998,262.23437,156.04492)"
       spreadMethod="pad"
       id="linearGradient60">
      <stop
         style="stop-opacity:1;stop-color:#0071bb"
         offset="0"
         id="stop56" />
      <stop
         style="stop-opacity:1;stop-color:#00295b"
         offset="1"
         id="stop58" />
    </linearGradient>
    <clipPath
       clipPathUnits="userSpaceOnUse"
       id="clipPath70">
      <path
         d="M 0,396 H 864 V 0 H 0 Z"
         id="path68" />
    </clipPath>
    <clipPath
       clipPathUnits="userSpaceOnUse"
       id="clipPath98">
      <path
         d="M 0,396 H 864 V 0 H 0 Z"
         id="path96" />
    </clipPath>
    <clipPath
       clipPathUnits="userSpaceOnUse"
       id="clipPath134">
      <path
         d="M 0,396 H 864 V 0 H 0 Z"
         id="path132" />
    </clipPath>
    <clipPath
       clipPathUnits="userSpaceOnUse"
       id="clipPath164">
      <path
         d="M 0,396 H 864 V 0 H 0 Z"
         id="path162" />
    </clipPath>
    <clipPath
       clipPathUnits="userSpaceOnUse"
       id="clipPath184">
      <path
         d="M 0,396 H 864 V 0 H 0 Z"
         id="path182" />
    </clipPath>
  </defs>
  <sodipodi:namedview
     id="namedview4"
     pagecolor="#ffffff"
     bordercolor="#666666"
     borderopacity="1.0"
     inkscape:showpageshadow="2"
     inkscape:pageopacity="0.0"
     inkscape:pagecheckerboard="0"
     inkscape:deskcolor="#d1d1d1"
     showgrid="false"
     inkscape:zoom="0.8875663"
     inkscape:cx="504.75103"
     inkscape:cy="544.74804"
     inkscape:window-width="2400"
     inkscape:window-height="1271"
     inkscape:window-x="-9"
     inkscape:window-y="-9"
     inkscape:window-maximized="1"
     inkscape:current-layer="layer1">
    <inkscape:page
       x="0"
       y="0"
       id="page8"
       width="1152"
       height="528" />
  </sodipodi:namedview>
  <g
     inkscape:groupmode="layer"
     id="layer1"
     inkscape:label="SwiftFollowup"
     style="display:inline"
     inkscape:highlight-color="#1551ca">
    <g
       id="g175"
       inkscape:label="Bird">
      <path
         d="M 426.4809,165.84483 495.436,119.657 c 11.17713,12.42082 22.0947,27.37622 26.966,43.076 4.42773,14.2702 13.84874,44.16562 9.3595,102.816 -4.5542,59.49908 -31.6875,105.406 -31.6875,105.406 0,0 -2.87058,-114.67611 -35.52167,-160.99037 -24.0137,-34.06247 -38.07143,-44.1198 -38.07143,-44.1198 z"
         style="display:inline;fill:url(#linearGradient28);stroke:#000000;stroke-opacity:1"
         id="path30"
         inkscape:label="rear_wing_fill"
         transform="matrix(1.3333333,0,0,-1.3333333,0,528)"
         sodipodi:nodetypes="ccsscsc" />
      <path
         d="M 338.39676,247.91524 242.194,278.35 c 0,0 75.806,-38.282 91.945,-51.043 16.139,-12.761 25.98,-22.436 36.8105,-35.8525 10.8305,-13.4165 34.55415,-54.69843 34.55415,-54.69843 0,0 -11.6887,-21.89494 -44.00925,-42.079561 C 331.29515,75.816673 212.3712,30.543022 212.3712,30.543022 c 0,0 126.84581,-1.206264 157.50683,5.380529 36.66942,7.877555 71.29306,28.480913 80.48397,36.739449 10.60662,9.530629 14.06757,10.659738 18.22273,11.279766 2.92345,0.436236 6.82909,-0.210987 12.33577,-4.915766 5.26599,-4.499137 8.28648,-8.815885 19.102,-12.968 9.18535,-3.526285 23.12198,-6.566172 30.39,-5.503 8.64264,1.264252 20.1125,-13.98 20.1125,-13.98 l -3.737,22.731 c 0,0 6.55325,11.196466 3.084,21.5975 -4.28026,12.83249 -11.07509,22.10473 -18.5151,29.35173 -7.44,7.247 -17.45014,9.64585 -19.48124,15.48301 C 507.39433,148.61809 466.494,191.829 445.973,204.048 425.452,216.267 380.043,240.674 356.3785,255.1585 332.714,269.643 270.973,312.296 270.973,312.296 Z"
         style="display:inline;fill:url(#linearGradient60);stroke:#000000;stroke-linejoin:round;stroke-opacity:1"
         id="path62"
         inkscape:label="body-fill"
         transform="matrix(1.3333333,0,0,-1.3333333,0,528)"
         sodipodi:nodetypes="ccsscscssssssccszssscc" />
      <path
         d="m 678.43496,429.71406 c 20.89961,3.69847 26.41729,14.05342 26.41729,14.05342 0,0 -16.315,-2.30505 -24.01808,-3.1339 -10.75905,-1.15768 -30.03817,-14.72504 -35.32148,-24.46334 -8.20924,-15.1314 -6.19798,-27.10032 -6.19798,-27.10032 0,0 11.40229,35.73907 39.12025,40.64414 z"
         style="display:inline;fill:#ffffff;fill-opacity:1;fill-rule:nonzero;stroke:none;stroke-width:1.33333"
         id="path78"
         inkscape:label="white-cheek-fill"
         sodipodi:nodetypes="scsscs" />
      <path
         d="m 693.30987,414.35961 c 4.05023,5.01701 4.78219,12.07215 -1.39135,12.37746 -6.17446,0.30535 -8.89946,-1.40912 -11.37481,-5.87274 -2.47798,-4.46838 -0.67411,-10.70835 -0.67411,-10.70835 0,0 9.09088,-1.18395 13.44027,4.20363 z"
         style="display:inline;fill:#000000;fill-opacity:1;fill-rule:nonzero;stroke:none;stroke-width:1.33333"
         id="path82"
         inkscape:label="eye-fill"
         sodipodi:nodetypes="ssscs" />
    </g>
    <g
       id="g185"
       inkscape:label="FollowupText"
       style="display:inline">
      <path
         d="M 0,0 H -40.182 V -124.772 H -29.1 v 57.642 h 26.788 v 9.966 H -29.1 V -9.807 H 0 Z"
         style="display:inline;fill:#ffffff;fill-opacity:1;stroke:#000000;stroke-width:2.254;stroke-linecap:butt;stroke-linejoin:miter;stroke-miterlimit:4;stroke-dasharray:none;stroke-opacity:1"
         id="path90"
         inkscape:label="Followup_F"
         transform="matrix(1.3333333,0,0,-1.3333333,591.76945,191.74094)" />
      <path
         d="m 0,0 c 0,6.005 -3.003,9.009 -9.009,9.009 h -26.629 c -5.953,0 -8.928,-3.004 -8.928,-9.009 v -59.556 c 0,-6.007 2.975,-9.009 8.928,-9.009 h 26.629 c 6.006,0 9.009,3.002 9.009,9.009 z m -33.963,-0.319 h 23.359 v -58.917 h -23.359 z"
         style="display:inline;fill:#ffffff;fill-opacity:1;stroke:#000000;stroke-width:2.254;stroke-linecap:butt;stroke-linejoin:miter;stroke-miterlimit:4;stroke-dasharray:none;stroke-opacity:1"
         id="path102"
         inkscape:label="Followup_o1"
         transform="matrix(1.3333333,0,0,-1.3333333,669.90105,266.68361)" />
      <path
         d="M 530.81,252.194 H 520.366 V 127.422 h 10.444 z"
         style="display:inline;fill:#ffffff;fill-opacity:1;stroke:#000000;stroke-width:2.254;stroke-linecap:butt;stroke-linejoin:miter;stroke-miterlimit:4;stroke-dasharray:none;stroke-opacity:1"
         id="path104"
         inkscape:label="Followup_l1"
         transform="matrix(1.3333333,0,0,-1.3333333,0,528)" />
      <path
         d="M 559.91,252.194 H 549.466 V 127.422 h 10.444 z"
         style="display:inline;fill:#ffffff;fill-opacity:1;stroke:#000000;stroke-width:2.254;stroke-linecap:butt;stroke-linejoin:miter;stroke-miterlimit:4;stroke-dasharray:none;stroke-opacity:1"
         id="path106"
         inkscape:label="Followup_l2"
         transform="matrix(1.3333333,0,0,-1.3333333,0,528)" />
      <path
         d="m 0,0 c 0,6.005 -3.003,9.009 -9.009,9.009 h -26.629 c -5.953,0 -8.928,-3.004 -8.928,-9.009 v -59.556 c 0,-6.007 2.975,-9.009 8.928,-9.009 h 26.629 c 6.006,0 9.009,3.002 9.009,9.009 z m -33.963,-0.319 h 23.359 v -58.917 h -23.359 z"
         style="display:inline;fill:#ffffff;fill-opacity:1;stroke:#000000;stroke-width:2.254;stroke-linecap:butt;stroke-linejoin:miter;stroke-miterlimit:4;stroke-dasharray:none;stroke-opacity:1"
         id="path110"
         inkscape:label="Followup_o2"
         transform="matrix(1.3333333,0,0,-1.3333333,829.99345,266.68361)" />
      <path
         d="M 0,0 -10.922,-59.795 -22.243,0 h -9.248 L -42.813,-59.795 -53.735,0 h -9.966 l 16.025,-77.733 h 9.328 l 11.401,58.918 11.401,-58.918 h 9.487 L 9.966,0 Z"
         style="display:inline;fill:#ffffff;fill-opacity:1;stroke:#000000;stroke-width:2.254;stroke-linecap:butt;stroke-linejoin:miter;stroke-miterlimit:4;stroke-dasharray:none;stroke-opacity:1"
         id="path114"
         inkscape:label="Followup_w"
         transform="matrix(1.3333333,0,0,-1.3333333,932.25651,254.67187)" />
      <path
         d="m 0,0 h -10.444 v -67.448 l -23.519,-0.638 V 0 h -10.444 v -69.441 c 0,-5.741 2.87,-8.611 8.61,-8.611 3.349,0 7.574,0.319 12.677,0.957 4.197,0.531 8.423,1.088 12.676,1.674 v -2.153 H 0 Z"
         style="display:inline;fill:#ffffff;fill-opacity:1;stroke:#000000;stroke-width:2.254;stroke-linecap:butt;stroke-linejoin:miter;stroke-miterlimit:4;stroke-dasharray:none;stroke-opacity:1"
         id="path118"
         transform="matrix(1.3333333,0,0,-1.3333333,1022.1888,254.67187)"
         inkscape:label="Followup_u" />
      <path
         d="m 0,0 c 0,5.793 -2.949,8.69 -8.85,8.69 -3.029,0 -7.202,-0.346 -12.516,-1.036 C -25.565,7.122 -29.765,6.59 -33.963,6.06 V 8.212 H -44.566 V -98.781 h 10.603 v 29.419 h 17.46 c 4.731,0 8.663,1.581 11.8,4.744 3.135,3.161 4.703,7.136 4.703,11.919 z m -19.293,-60.034 h -14.67 v 58.121 l 23.359,0.638 v -49.829 c 0,-5.954 -2.897,-8.93 -8.689,-8.93 z"
         style="display:inline;fill:#ffffff;fill-opacity:1;stroke:#000000;stroke-width:2.254;stroke-linecap:butt;stroke-linejoin:miter;stroke-miterlimit:4;stroke-dasharray:none;stroke-opacity:1"
         id="path122"
         inkscape:label="Followup_p"
         transform="matrix(1.3333333,0,0,-1.3333333,1104.6784,265.62107)" />
    </g>
    <g
       id="g211"
       inkscape:label="SwiftText"
       style="display:inline">
      <path
         d="m 0,0 c -10.152,0 -18.882,-3.707 -26.19,-11.122 -7.309,-7.414 -10.962,-16.252 -10.962,-26.509 0,-8.504 2.418,-17.009 7.255,-25.512 3.029,-5.369 4.544,-8.85 4.544,-10.444 0,-2.446 -0.944,-4.479 -2.83,-6.1 -1.887,-1.621 -4.239,-2.431 -7.056,-2.431 -2.392,0 -5.13,0.983 -8.212,2.95 v -31.492 c 5.103,-2.392 10.258,-3.588 15.467,-3.588 10.843,0 20.024,3.667 27.546,11.002 7.52,7.335 11.281,16.291 11.281,26.868 0,7.228 -2.232,14.722 -6.697,22.483 l -2.472,4.305 c -1.913,3.349 -2.87,6.112 -2.87,8.292 0,2.551 0.877,4.73 2.632,6.537 1.753,1.807 3.853,2.711 6.298,2.711 1.275,0 3.081,-0.398 5.421,-1.196 V -2.232 C 8.85,-0.745 4.465,0 0,0 Z"
         style="display:inline;fill:#ffffff;fill-opacity:1;stroke:#000000;stroke-width:2.254;stroke-linecap:butt;stroke-linejoin:miter;stroke-miterlimit:4;stroke-dasharray:none;stroke-opacity:1"
         id="path138"
         inkscape:label="Swift_S"
         transform="matrix(1.3333333,0,0,-1.3333333,105.1348,211.24734)" />
      <path
         d="m 0,0 c 0,-10.737 2.365,-18.949 7.096,-24.635 6.006,-7.229 13.978,-10.844 23.918,-10.844 7.865,0 15.678,3.721 23.44,11.163 7.015,-7.442 14.934,-11.163 23.758,-11.163 8.557,0 15.838,3.123 21.845,9.369 6.006,6.244 9.009,13.832 9.009,22.761 V 45.604 H 79.249 V 2.791 c 0,-5.954 -1.649,-8.93 -4.944,-8.93 -1.807,0 -3.069,0.65 -3.787,1.953 -0.717,1.302 -1.076,3.628 -1.076,6.977 V 45.604 H 39.625 V 2.791 c 0,-5.954 -1.675,-8.93 -5.023,-8.93 -1.808,0 -3.058,0.65 -3.748,1.953 -0.691,1.302 -1.036,3.628 -1.036,6.977 V 45.604 H 0 Z"
         style="display:inline;fill:#ffffff;fill-opacity:1;stroke:#000000;stroke-width:2.254;stroke-linecap:butt;stroke-linejoin:miter;stroke-miterlimit:4;stroke-dasharray:none;stroke-opacity:1"
         id="path142"
         inkscape:label="Swift_w"
         transform="matrix(1.3333333,0,0,-1.3333333,141.5964,316.27347)" />
      <path
         d="m 232.723,126.027 h 29.818 v 79.487 h -29.818 z m 4.505,110.701 c -2.95,-2.845 -4.425,-6.207 -4.425,-10.086 0,-4.146 1.395,-7.548 4.186,-10.205 2.79,-2.658 6.364,-3.986 10.723,-3.986 4.357,0 7.933,1.328 10.723,3.986 2.791,2.657 4.186,6.059 4.186,10.205 0,3.879 -1.475,7.241 -4.425,10.086 -2.95,2.842 -6.446,4.265 -10.484,4.265 -4.04,0 -7.534,-1.423 -10.484,-4.265 z"
         style="display:inline;fill:#ffffff;fill-opacity:1;stroke:#000000;stroke-width:2.254;stroke-linecap:butt;stroke-linejoin:miter;stroke-miterlimit:4;stroke-dasharray:none;stroke-opacity:1"
         id="path144"
         inkscape:label="Swift_i"
         transform="matrix(1.3333333,0,0,-1.3333333,0,528)" />
      <path
         d="m 0,0 v 2.711 c 0,4.624 1.023,8.184 3.069,10.683 2.046,2.498 4.956,3.747 8.731,3.747 0.319,0 0.823,-0.027 1.514,-0.079 v 31.252 l -3.189,0.08 c -7.282,0 -14.284,-2.166 -21.008,-6.498 -6.724,-4.333 -11.733,-9.926 -15.028,-16.782 -2.605,-5.369 -3.907,-11.853 -3.907,-19.453 V -61.868 H 0 v 30.615 H 13.314 V 0 Z"
         style="display:inline;fill:#ffffff;fill-opacity:1;stroke:#000000;stroke-width:2.254;stroke-linecap:butt;stroke-linejoin:miter;stroke-miterlimit:4;stroke-dasharray:none;stroke-opacity:1"
         id="path148"
         inkscape:label="Swift_f"
         transform="matrix(1.3333333,0,0,-1.3333333,413.19786,277.47334)" />
      <path
         d="m 0,0 v -65.296 c 0,-11.321 2.285,-20.41 6.856,-27.267 3.614,-5.369 8.412,-9.62 14.391,-12.756 5.98,-3.137 12.344,-4.703 19.095,-4.703 0.743,0 1.886,0.027 3.428,0.079 v 31.333 c -5.316,0 -8.969,1.195 -10.962,3.588 -1.994,2.391 -2.99,6.749 -2.99,13.074 h 13.394 v 31.492 H 29.818 V 0 Z"
         style="display:inline;fill:#ffffff;fill-opacity:1;stroke:#000000;stroke-width:2.254;stroke-linecap:butt;stroke-linejoin:miter;stroke-miterlimit:4;stroke-dasharray:none;stroke-opacity:1"
         id="path152"
         inkscape:label="Swift_t"
         transform="matrix(1.3333333,0,0,-1.3333333,444.02532,214.86134)" />
    </g>
  </g>
</svg>
